<svg width="90" height="117" viewBox="0 0 90 117" fill="none" xmlns="http://www.w3.org/2000/svg">
<circle cx="47.5" cy="62.5" r="42.5" fill="black"/>
<path d="M0.904 93L31.336 25.8H40.84L71.368 93H61.288L34.12 31.176H37.96L10.792 93H0.904ZM13.864 76.2L16.456 68.52H54.28L57.064 76.2H13.864Z" fill="white"/>
<path d="M67 93.5H61.5L60.5 91" stroke="white"/>
<path d="M67 93.5H61.5L60.5 91" stroke="white"/>
<path d="M66 93H71C83.3333 85.6667 99.9 62 67.5 26H59C71.5 39.6667 90.8 70.7 68 85.5" stroke="white"/>
<path d="M74.853 41.5052C74.4714 41.2906 74.5519 40.7279 74.1565 40.5302" stroke="white" stroke-width="5" stroke-linecap="round"/>
<path d="M64.9633 29.5261C65.2398 29.5569 65.1774 29.8052 65.3811 29.913C65.6241 30.0417 65.9847 30.0412 66.2478 30.1452C67.0187 30.45 66.7573 30.5451 67.0836 31.1976C67.55 32.1305 68.1565 32.95 68.5848 33.9138C68.9047 34.6335 69.6438 35.7651 70.326 36.2199C70.693 36.4645 70.9126 37.1472 71.2933 37.4735C71.7459 37.8614 71.9696 38.7123 72.3767 39.1682C72.8647 39.7148 73.3135 40.4422 73.7386 41.0564C74.1054 41.5861 74.4697 42.2677 74.8839 42.7279C75.1378 43.01 74.977 43.6264 75.3018 43.8732C75.8258 44.2714 76.0734 44.7979 76.3852 45.3435C76.9355 46.3065 77.6388 47.004 77.6388 48.1912C77.6388 48.6649 77.6225 49.1417 77.6388 49.6151C77.6831 50.8988 78.6453 51.9622 78.8924 53.1361C79.0154 53.7203 79.6215 54.1319 79.7204 54.676C79.7859 55.0363 79.842 55.2126 80.0687 55.504C80.3644 55.8842 80.1328 55.2838 80.1538 54.885C80.1963 54.0773 80.3772 53.2216 80.0764 52.4396C79.9548 52.1233 80.0974 51.7053 79.7978 51.4723C79.6171 51.3317 79.4295 51.1755 79.3413 50.9461C79.1572 50.4676 78.9132 50.0932 78.8924 49.5532C78.8832 49.3136 78.7531 49.13 78.7531 48.8877C78.7531 48.3275 79.2368 49.4077 79.2794 49.5222C79.6229 50.4471 79.173 51.5123 79.5115 52.4009C79.7806 53.1074 79.7367 53.8099 80.0687 54.5212C80.6416 55.749 80.658 57.3026 81.1211 58.5762C81.2 58.7932 81.3015 59.6521 81.3378 59.5899C81.4618 59.3773 81.7762 58.9972 81.8098 58.7619C81.852 58.4664 81.8165 58.0855 82.0961 57.9107C82.3134 57.7749 82.2464 56.7566 82.2354 57.0749C82.1982 58.1543 82.0961 59.2252 82.0961 60.3096C82.0961 61.0074 82.0735 61.6502 82.2973 62.3216C82.4354 62.7359 82.4298 63.7498 82.7926 63.9312" stroke="white" stroke-width="4" stroke-linecap="round"/>
<path d="M63.2917 28.2725H63.8489" stroke="white" stroke-width="4" stroke-linecap="round"/>
<path d="M80.9818 66.9956C81.8302 66.9956 81.5202 67.577 81.7866 68.1099C81.8553 68.2474 81.9376 68.8208 81.9878 68.8528C82.0994 68.9238 83.0048 67.5207 83.0867 67.398C83.2832 67.1032 84.0314 66.2731 84.0462 66.0205C84.0844 65.3713 83.6632 66.0205 83.2105 66.0205" stroke="white" stroke-width="4" stroke-linecap="round"/>
<path d="M79.3103 77.9997C79.3103 77.497 79.3301 76.3106 79.5889 75.8793C79.9028 75.3562 79.986 74.6608 80.3937 74.2078C80.7146 73.8513 80.9868 73.4085 81.1985 72.9852C81.3833 72.6156 81.8176 72.2308 81.8176 71.8012C81.8176 71.5329 81.3202 72.7798 81.4074 71.9946C81.4695 71.4355 81.7839 69.9444 82.3128 69.6422C82.6209 69.4661 82.5508 70.4595 82.2354 70.6172" stroke="white" stroke-width="4" stroke-linecap="round"/>
<path d="M69.0027 88.7251C70.009 88.6659 71.0256 87.9028 71.9588 87.5798C72.5261 87.3834 72.8545 86.7982 73.3827 86.4964C73.7307 86.2976 74.2534 85.9197 74.5434 85.6297C74.9016 85.2716 75.3988 85.1729 75.7584 84.6934C76.0566 84.2958 76.1955 83.8021 76.5245 83.432C76.9826 82.9166 77.685 82.105 77.8864 81.42C78.0479 80.871 78.7531 80.4655 78.7531 79.8801C78.7531 79.6512 78.9262 79.4898 78.8924 79.2533C78.8799 79.1655 78.3781 79.7521 78.3353 79.7949C78.085 80.0453 77.7847 80.2311 77.5305 80.4759C77.0391 80.9491 76.5116 81.3555 76.0292 81.8379C75.4955 82.3716 75.2042 83.0069 74.7756 83.6023C74.2926 84.273 73.4392 85.3786 72.7017 85.769C72.1915 86.0391 71.718 86.7063 71.301 87.1232C71.0004 87.4239 71.1166 88.295 70.8135 88.4465" stroke="white" stroke-width="4" stroke-linecap="round"/>
<path d="M69.9778 90.118C70.4444 90.118 71.1087 89.9556 71.2391 89.499C71.431 88.8274 72.4329 88.4638 72.8255 87.959C73.1425 87.5515 73.2851 87.0502 73.6303 86.6667C73.9984 86.2577 74.4497 85.9034 74.853 85.5214C75.2593 85.1364 75.663 84.7067 75.8977 84.1904C76.1642 83.604 76.9149 83.2844 77.0894 82.6737C77.1546 82.4454 77.6236 82.1746 77.809 82.0391C78.1461 81.7928 78.4434 81.3779 78.6138 80.9944C78.8744 80.4081 79.3409 80.0201 79.5889 79.4622C79.8456 78.8845 80.2619 78.3235 80.533 77.7211C80.6771 77.4007 80.8464 77.1103 80.9895 76.8002C81.1807 76.386 81.5944 76.1553 81.7866 75.771C81.9067 75.5308 81.8202 75.1996 81.9259 74.9352C82.0357 74.6608 82.1608 74.1916 82.2277 73.8905C82.3498 73.3409 82.3998 72.7679 82.5217 72.219C82.6667 71.5668 82.6899 71.2767 82.6533 70.6172C82.6048 69.7442 82.9319 68.9773 82.9319 68.1099C82.9319 67.2838 82.3978 66.6055 82.3747 65.8194C82.3631 65.4229 82.3747 65.0243 82.3747 64.6276C82.3747 64.2103 82.0961 63.9156 82.0961 63.5133" stroke="white" stroke-width="4" stroke-linecap="round"/>
<path d="M74.7524 47.4567C74.9158 48.0289 75.4817 48.5974 75.8686 49.0326C75.9532 49.1278 75.929 49.1494 75.854 49.0472C75.7172 48.8606 75.6059 48.5816 75.6059 48.3468C75.6059 48.1528 75.4758 48.3291 75.4418 48.4161C75.3141 48.7424 75.2776 49.0791 75.2776 49.4265C75.2776 49.5655 75.2776 50.3308 75.2776 49.8241C75.2776 49.5457 75.2776 49.2672 75.2776 48.9888C75.2776 48.407 75.0084 47.7784 74.5882 47.3582C74.486 47.256 74.2412 47.0109 74.4277 47.3217C74.5961 47.6024 74.7043 47.936 74.818 48.2446C74.945 48.5892 75.022 48.8505 75.0843 49.1931C75.0993 49.2755 75.212 49.764 75.212 49.463C75.212 48.8928 75.1463 48.3207 75.1463 47.7558C75.1463 47.4986 75.1092 47.2063 75.1609 46.9533C75.2033 46.7462 75.3544 46.4655 75.2339 46.2602C75.1038 46.0385 74.9017 45.8333 74.7195 45.6511C74.6421 45.5737 74.536 45.4549 74.4934 45.3556C74.4231 45.1917 74.2921 45.1754 74.1906 45.0419C73.8469 44.5896 73.1765 44.1471 73.1765 43.5171" stroke="white" stroke-linecap="round"/>
<path d="M68.5146 37.148C68.1544 37.148 68.2608 37.1606 68.4453 37.4836C68.6119 37.7752 68.7828 38.0388 68.9743 38.3153C69.1013 38.4988 69.3338 38.8198 69.4995 38.95C69.7426 39.141 69.8289 39.5343 70.0905 39.6942C70.3095 39.828 70.369 40.1372 70.5209 40.3325C70.6948 40.556 70.8442 40.7722 71.0097 41.0074C71.3203 41.4488 71.7936 41.8603 72.0311 42.3352C72.1637 42.6003 72.3225 42.8092 72.4907 43.0429C72.7072 43.3434 72.7965 43.7083 73.0051 44.0095C73.1918 44.2793 73.2438 44.6648 73.4392 44.947C73.5967 45.1746 73.7275 45.3643 73.8477 45.6182C73.9958 45.9308 74.0785 46.2648 74.3219 46.5083C74.3781 46.5645 74.6826 47.0955 74.5408 46.8001C74.2415 46.1767 74.0319 45.3282 73.41 44.9324C73.2246 44.8144 73.0884 44.5485 73.0415 44.3378C73.0162 44.2239 72.6179 43.572 72.6002 43.6119C72.4676 43.9101 72.6566 44.643 72.8154 44.9288C72.9497 45.1705 73.1006 45.381 73.2203 45.6328C73.3359 45.8759 73.5813 46.1655 73.7966 46.3295C73.9372 46.4367 73.9168 46.534 74.0301 46.6359C74.1381 46.7332 74.0957 46.9057 74.1614 47.0335C74.226 47.1591 74.3655 47.1935 74.4095 47.34C74.5434 47.7865 74.6028 48.1975 74.8509 48.6021C75.0483 48.9243 75.2694 49.1456 75.409 49.5068C75.5676 49.9173 75.584 50.5626 75.606 51.0024C75.6183 51.2487 75.7339 51.3639 75.8649 51.5605C76.0161 51.7872 76.1287 52.0069 76.2626 52.2353C76.5155 52.6667 76.4345 53.1749 76.6893 53.5996C76.7898 53.7671 76.8955 53.9441 76.9848 54.1176C77.068 54.2792 77.3029 54.5613 77.3131 54.745C77.3271 54.9964 77.5101 55.2127 77.5101 55.4381C77.5101 55.7851 77.6161 56.0952 77.6414 56.4376C77.6495 56.5463 77.9041 57.0894 77.9041 56.8461" stroke="white" stroke-linecap="round"/>
<path d="M72.9795 43.4514C72.816 43.4514 72.4272 43.1793 72.2718 43.3347C71.9282 43.6783 73.8538 44.4202 73.8988 44.4363" stroke="white" stroke-linecap="round"/>
<path d="M79.5456 58.8816C79.2022 58.8614 78.992 58.1839 78.7941 57.9295C78.5014 57.5531 78.5292 56.9547 78.4293 56.5178C78.297 55.9389 78.4691 56.4894 78.5607 56.744C78.7577 57.2918 79.0173 58.0144 78.951 58.6116C78.9265 58.8315 78.8392 59.04 78.8269 59.2719C78.8131 59.535 78.8833 59.7624 78.889 60.0124C78.8959 60.3185 79.0092 60.6028 79.0203 60.9025C79.0291 61.1394 78.966 60.4307 78.9181 60.1984C78.8075 59.6608 78.5607 59.0709 78.5607 58.5241C78.5607 58.2452 78.4275 58.0483 78.3783 57.7799C78.3139 57.429 78.2669 57.5608 78.4439 57.8201C78.8946 58.48 79.2766 59.2073 79.6441 59.9139C80.0154 60.6279 80.2022 61.6312 80.2022 62.4272C80.2022 63.1345 80.4846 63.778 80.629 64.4664C80.6972 64.7916 81.3432 66.3727 80.8588 66.6149C80.6306 66.729 80.1165 66.3262 80.0745 66.137C79.9156 65.4221 79.8082 64.7565 79.8082 64.0067C79.8082 63.3212 80.0935 62.3964 79.7717 61.7706C79.7444 61.7175 79.5801 61.3439 79.5602 61.435C79.5245 61.5978 79.5996 61.8148 79.6441 61.9749C79.709 62.2088 79.6406 62.8656 79.4945 62.2959C79.4172 61.9944 79.3465 61.6973 79.2537 61.3986C79.0954 60.8884 79.362 61.8207 79.4106 61.9567C79.5441 62.3306 79.6112 62.5155 79.6112 62.916C79.6112 63.5532 79.6112 64.1903 79.6112 64.8275C79.6112 64.9736 79.451 65.9568 79.4434 65.9547C79.2652 65.9037 79.2829 64.2207 79.2829 63.9703C79.2829 63.3149 79.2829 62.6595 79.2829 62.0041C79.2829 61.9342 79.252 61.5153 79.3158 61.5153C79.504 61.5153 79.548 62.1796 79.5602 62.2521C79.6251 62.6393 79.6921 63.0282 79.728 63.4194C79.732 63.4639 79.7892 63.9078 79.6732 63.6565C79.5214 63.3276 79.5452 62.9615 79.4507 62.6169C79.3532 62.2613 79.3654 61.9386 79.1516 61.6393C78.9138 61.3064 79.1897 61.9857 79.2683 62.0989C79.3968 62.2839 79.4757 62.5317 79.4799 62.7555C79.4862 63.088 79.5916 63.3874 79.6076 63.7149C79.6465 64.5118 79.4799 65.3015 79.4799 66.0969C79.4799 66.5184 79.4504 67.0081 79.7425 67.3518C79.9293 67.5715 79.8892 67.9048 79.7717 68.1397C79.6443 68.3945 79.3979 68.6282 79.2319 68.862C79.1106 69.0325 79.0173 69.2483 78.9692 69.4529C78.9531 69.5212 78.9674 69.8708 78.951 69.6243C78.9055 68.9426 78.5607 68.3646 78.5607 67.6728C78.5607 67.5531 78.5826 67.3276 78.7722 67.4612C79.1453 67.724 79.2173 68.3683 79.2173 68.7853C79.2173 69.7848 78.9544 70.9865 79.1808 71.9772C79.3418 72.6815 79.4385 71.9181 79.5237 71.5978C79.6641 71.07 79.8973 70.5832 80.0344 70.0511C80.0796 69.8755 80.1423 69.0467 80.3663 68.9969C80.5865 68.948 80.3979 69.5684 80.37 69.6353C79.9638 70.6076 79.3036 71.3555 79.2829 72.4076C79.2765 72.7351 78.9633 72.976 78.8926 73.294C78.8857 73.3251 79.1778 72.7508 79.2063 72.5608C79.2378 72.3511 79.2173 72.1233 79.2173 71.9115C79.2173 71.656 79.1471 71.9166 79.0859 72.0428C78.971 72.2799 78.9147 72.337 78.7576 72.5098C78.626 72.6545 78.4293 73.29 78.4293 72.8636C78.4293 72.2888 78.3809 71.6818 78.743 71.1892C78.8664 71.0215 78.8233 72.0184 78.8233 72.145C78.8233 72.5572 78.8827 73.0153 78.8197 73.4254C78.7957 73.581 78.6478 73.7037 78.557 73.823C78.36 74.0815 78.2433 74.3398 77.9989 74.5598C77.6919 74.8361 77.7499 75.1028 77.6998 75.4535C77.5921 76.2071 77.2164 77.0012 76.6784 77.551C76.5032 77.7301 76.1519 77.8811 76.1312 78.1711C76.1063 78.5202 76.4697 78.3111 76.6529 78.2149C76.8858 78.0926 77.4315 77.804 77.5137 77.5437C77.6452 77.1275 77.7861 76.7146 77.9332 76.3035C78.0243 76.049 78.1667 75.7598 78.1667 75.4827C78.1667 75.0018 78.1223 74.6009 78.2178 74.1075C78.2986 73.69 78.652 73.4611 78.7613 73.0606C78.8441 72.7568 79.2613 72.6736 79.4434 72.4149C79.7256 72.0142 79.8878 71.5365 80.1438 71.1163C80.8668 69.9294 81.3247 68.6237 81.6066 67.2642C81.7726 66.4632 81.9813 65.7138 82.0261 64.8859C82.0656 64.1554 81.9773 63.4161 82.1063 62.6935C82.179 62.2864 82.2376 61.9489 82.2376 61.5372C82.2376 61.0863 82.1014 60.7794 81.975 60.337C81.721 59.4479 81.113 58.6789 80.888 57.7653C80.6681 56.8732 80.1148 56.0422 79.7425 55.2046" stroke="white" stroke-linecap="round"/>
<path d="M76.9192 78.7767C76.7517 78.7767 76.4876 79.0313 76.3647 79.1378C76.162 79.3135 75.8388 80.0449 75.8795 79.7798C75.9379 79.4007 76.0948 79.0211 76.3246 78.7147C76.5654 78.3936 76.2971 78.9754 76.1239 79.1013C75.8526 79.2987 75.5324 79.3418 75.3287 79.6303C75.1465 79.8884 74.8122 79.9802 74.6356 80.2723C74.3226 80.79 73.9106 81.2256 73.5705 81.7168C73.297 82.1118 72.9218 82.4403 72.6184 82.8112C72.5704 82.8698 72.322 83.0895 72.5382 82.9315C72.8587 82.6973 73.1709 82.513 73.5231 82.3369C73.9004 82.1483 74.0907 81.7863 74.4277 81.5673C74.6847 81.4002 74.8315 81.2071 74.9457 80.9216C75.1452 80.4228 75.4886 79.6527 75.854 79.2874C75.9361 79.2053 75.9991 79.0774 76.051 78.9737C76.1468 78.7821 76.096 79.0024 76.0145 79.0904C75.9434 79.1672 75.7587 79.2179 75.7227 79.302C75.6205 79.5404 76.1891 79.0673 76.3939 78.908" stroke="white" stroke-linecap="round"/>
<path d="M72.126 83.2416C71.9712 83.435 71.9111 83.5578 71.6663 83.6866C71.4524 83.7992 71.2726 83.9767 71.0754 84.1316C70.7229 84.4086 70.4553 84.7882 70.127 85.0801C69.9586 85.2297 69.7988 85.3806 69.6309 85.5397C69.4758 85.6866 69.2516 85.9123 69.0691 86.0285C68.9526 86.1026 68.1903 86.7887 68.1863 86.7216C68.1642 86.3446 67.6098 86.186 68.055 85.868C68.1133 85.8263 68.2778 85.8083 68.3031 85.7367C68.3286 85.6644 68.0862 85.5761 68.2812 85.7002C68.5832 85.8924 68.9071 86.067 69.2004 86.2765C69.4127 86.4281 69.5953 86.4279 69.4485 86.7216C69.3723 86.8739 69.2762 87.1812 69.5433 87.1812C69.9181 87.1812 70.3666 87.1047 70.7179 86.9769C70.9222 86.9026 71.1428 86.6417 71.338 86.5246" stroke="white" stroke-linecap="round"/>
<path d="M70.8784 91.8431C70.6936 91.8431 71.2488 91.9452 71.4292 91.9051C71.5146 91.8861 71.5676 91.6297 71.6663 91.5659C71.7766 91.4945 71.8739 91.3692 71.991 91.2886C72.3731 91.0259 72.9254 91.3128 73.2422 90.8728C73.4408 90.597 73.6443 90.4842 73.928 90.3037C74.2053 90.1272 74.2678 89.7796 74.5225 89.5815C74.709 89.4365 74.9392 89.2718 75.0807 89.0708C75.2838 88.7821 75.5692 88.645 75.8029 88.3996C76.0454 88.1449 76.1485 87.8058 76.361 87.546C76.4443 87.4443 76.576 87.393 76.6711 87.2979C77.0321 86.9369 76.5727 87.2195 76.3537 87.3089C76.0819 87.4198 75.6132 87.4399 75.4418 87.7065C75.3202 87.8956 75.208 88.0989 75.0807 88.2828C75.0646 88.3061 74.7693 88.592 74.9639 88.5163C75.1985 88.4251 75.4888 88.3252 75.6424 88.115C76.0224 87.5951 76.6218 87.2086 77.076 86.7544C77.4272 86.4032 77.5485 85.9539 77.7436 85.5105C77.8713 85.2201 78.1756 84.8742 78.3965 84.6533C78.5111 84.5387 78.7318 83.9869 78.7722 84.2703C78.8305 84.678 78.8723 85.2732 78.4804 85.5397C78.2283 85.7112 77.9326 85.8807 77.7764 86.1671C77.6848 86.3351 77.5414 86.4911 77.459 86.6559C77.2906 86.9928 77.9667 86.094 78.2652 85.8644C78.464 85.7115 78.485 85.4035 78.63 85.2041C78.7794 84.9987 78.8523 84.785 78.9036 84.5402C78.9744 84.2016 79.0014 83.935 79.1151 83.6064C79.2225 83.2962 79.3897 82.7379 79.6404 82.523C79.8989 82.3014 80.0052 82.9496 80.0052 83.1467C80.0052 83.4129 79.6996 83.6009 79.5966 83.8325C79.4797 84.0957 79.4361 84.3862 79.2829 84.635C78.9554 85.1672 79.211 84.3192 79.3632 84.1462C79.7089 83.7534 79.9421 83.1694 80.0709 82.6543C80.1777 82.2269 80.5562 81.8675 80.8223 81.5381C80.9557 81.3729 81.1271 81.2275 81.2199 81.0347C81.2873 80.8948 81.474 80.1388 81.6321 80.1191C81.7817 80.1004 81.5152 80.3973 81.4461 80.5313C81.3121 80.7908 81.2116 81.0795 81.1068 81.352C81.0311 81.5489 80.8723 81.6879 80.7968 81.8955C80.6911 82.186 80.5803 82.4748 80.4794 82.7674C80.4081 82.9742 80.2996 83.1781 80.2022 83.3729" stroke="white" stroke-linecap="round"/>
<path d="M85.258 67.4174C85.258 68.1858 84.7984 68.832 84.7984 69.6353C84.7984 69.9059 84.8587 70.2559 84.7473 70.5035C84.6666 70.6829 84.5357 70.8062 84.5357 71.0069C84.5357 71.3218 84.5357 71.6367 84.5357 71.9516C84.5357 72.7466 84.5627 71.5461 84.6379 71.3206C84.7806 70.8925 84.9918 70.5107 85.1924 70.1095C85.3512 69.7917 85.2185 69.4174 85.1121 69.11C85.1035 69.0851 84.9917 68.895 85.0063 69.0115C85.0426 69.3019 85.1992 69.6094 85.2835 69.8906C85.3312 70.0494 85.2773 70.2624 85.3565 70.405C85.6239 70.8863 85.0618 71.6175 84.8969 72.0793C84.7097 72.6034 84.7337 73.1345 84.3388 73.5859C84.1035 73.8548 83.8796 74.1086 83.6785 74.4103C83.2847 75.0009 83.2999 75.6642 83.1423 76.3472C83.0447 76.7701 83.0838 77.1676 82.8286 77.5437C82.4891 78.044 82.1712 78.5244 81.8802 79.0649C81.6451 79.5015 81.3716 79.9251 81.1542 80.3598C80.693 81.2823 82.0854 80.6504 82.4565 80.5641C82.9483 80.4497 82.6316 80.0339 82.6316 79.6959C82.6316 79.2292 82.9309 78.7084 83.2371 78.3681C83.6428 77.9174 83.6918 77.2046 83.9959 76.6901C84.236 76.2837 84.5255 75.9156 84.7656 75.5155C84.8792 75.3262 84.9004 75.1424 84.9443 74.9392C84.9655 74.8412 85.0245 74.0373 84.9005 74.2498C84.7113 74.5741 84.7259 74.987 84.4701 75.2967C84.311 75.4893 84.1859 75.6608 84.0324 75.8511C83.3424 76.706 82.8741 77.588 82.3252 78.5432C82.1968 78.7665 80.7933 80.8051 80.8952 80.907C81.1146 81.1264 81.6409 80.5996 81.778 80.451C82.1002 80.102 82.0974 79.6495 82.3179 79.2509C82.6233 78.6988 82.8172 78.1092 82.9891 77.5C83.1815 76.8177 83.466 76.0784 84.0725 75.6615C84.4067 75.4317 84.4653 74.9395 84.3059 74.5854C84.1604 74.2619 84.2277 73.9714 84.3388 73.626C84.5107 73.0912 84.5779 72.5977 84.6671 72.0428C84.7738 71.379 84.813 70.6774 85.123 70.0767C85.2491 69.8324 85.2921 69.5199 85.4696 69.307C85.7756 68.9398 85.8884 68.178 85.7468 67.7129C85.6078 67.256 85.5207 66.8205 85.5207 66.3377C85.5207 65.9506 85.6864 65.0328 85.3237 64.791" stroke="white" stroke-linecap="round"/>
<path d="M80.2022 48.6385C80.742 48.6601 80.7663 49.4998 81.1543 49.7584C81.258 49.8276 81.2257 49.9395 81.2819 50.032C81.383 50.1985 81.5556 50.3541 81.6321 50.5281C81.676 50.6278 81.8376 51.2019 81.8437 50.9075C81.85 50.6059 81.7936 50.4332 81.7124 50.1487C81.6558 49.9508 81.4497 49.7959 81.4497 49.587C81.4497 49.3573 81.2442 48.8339 81.6467 49.3462C81.8597 49.6173 81.8437 49.7403 81.8437 50.0831C81.8437 50.6661 82.109 51.2663 82.3398 51.7939C82.4443 52.0327 82.5281 52.2745 82.617 52.5198C82.759 52.9117 82.731 52.8673 82.814 52.3885C82.9076 51.8482 83.2495 51.0949 82.8286 50.674C82.4624 50.3078 82.0601 49.9704 81.913 49.4557C81.8892 49.3723 81.8352 49.2684 81.8802 49.4484C81.9815 49.8536 82.1092 50.2528 82.2741 50.6375C82.565 51.3163 82.8101 51.9994 83.0548 52.6986C83.1405 52.9435 83.3402 53.316 83.3539 53.5631C83.3705 53.8628 83.3539 54.1675 83.3539 54.4677C83.3539 54.9805 83.4294 54.1612 83.5217 53.9899C83.7595 53.5483 83.8135 53.1717 83.8135 52.673C83.8135 52.5486 83.8408 52.4623 83.6968 52.4469C83.5892 52.4353 83.4892 52.386 83.3977 52.3301C83.3938 52.3278 83.276 52.2254 83.2736 52.228C83.0847 52.4379 83.2226 53.2006 83.2226 53.4464C83.2226 53.8403 83.2226 54.2343 83.2226 54.6282C83.2226 54.7745 83.2269 54.9205 83.208 55.066C83.1984 55.1392 82.9562 55.8584 82.9453 55.8393C82.7509 55.499 82.6377 54.9833 82.5003 54.6064C82.4076 54.3522 82.2648 54.0244 82.3179 53.7455C82.424 53.1886 82.2143 53.7181 82.2449 53.9789C82.3302 54.7039 82.6265 55.4549 83.1532 55.9816C83.5795 56.4078 83.7584 55.698 83.8281 55.387C83.9255 54.9521 83.9773 54.5108 84.0616 54.0738C84.1185 53.7785 84.1736 53.8789 84.1929 54.0811C84.2287 54.4574 84.1096 54.8204 84.0616 55.19C84.0165 55.5372 83.9472 55.7262 83.8099 55.2885C83.676 54.8619 83.5558 54.4776 83.3575 54.0811C83.2177 53.8014 83.1451 53.4883 82.8687 53.3041C82.8275 53.2766 82.6895 53.1615 82.7082 53.3114C82.7492 53.6389 83.3393 53.7971 83.5217 54.0957C83.7374 54.4487 83.8265 54.8649 84.0433 55.2119C84.2001 55.4628 84.0828 55.99 84.1564 56.2843C84.1889 56.4143 84.3317 56.587 84.3388 56.7148C84.3729 57.3295 84.4674 57.9052 84.5868 58.5168C84.6134 58.6527 84.6854 59.2008 84.6634 58.7503C84.6367 58.2024 84.5597 57.6563 84.5394 57.1087C84.5135 56.408 84.7334 55.7178 84.6634 55.0186C84.6404 54.7877 84.4089 54.3542 84.2221 54.2197C83.9584 54.0298 83.9058 53.4593 83.8281 53.1764C83.7235 52.7958 83.4527 52.4871 83.321 52.1186C83.2892 52.0294 83.2458 51.8096 83.2262 52.0638C83.1898 52.5371 83.383 53.0947 83.518 53.5448C83.592 53.7914 83.6165 53.935 83.6165 54.2197C83.6165 54.7212 83.7115 55.1177 83.7989 55.5986C83.8878 56.0873 83.7613 56.5875 83.8792 57.0796C83.9679 57.45 84.1338 57.7932 84.233 58.1593C84.3532 58.603 84.2862 59.0421 84.3497 59.4871C84.3985 59.8287 84.5437 60.149 84.6051 60.4866C84.626 60.6015 84.7739 60.6417 84.7948 60.7565C84.9069 61.3732 85.4305 61.9717 85.455 62.6096C85.4775 63.1956 85.3809 63.8483 85.0756 64.3533C84.6079 65.1269 85.3237 63.5492 85.3237 64.2001C85.3237 64.2916 85.4603 64.8135 85.5207 64.6524C85.8743 63.7093 85.7771 62.3297 85.7833 61.3548C85.7869 60.7839 85.9588 60.2899 85.8526 59.706C85.8061 59.45 85.5323 59.1019 85.3966 58.8597C85.2233 58.5502 84.8752 59.3769 84.8349 59.5455C84.7695 59.819 84.7327 60.0897 84.7327 60.3699C84.7327 60.7099 84.6373 61.0275 84.7072 61.3694C84.7882 61.7653 84.9344 62.1668 85.0574 62.5513C85.2507 63.1553 85.4361 63.9139 85.0538 64.47C84.8886 64.7102 84.8699 63.711 84.8787 63.5872C84.9081 63.1705 84.9529 62.7667 84.9151 62.347C84.8644 61.7834 84.7467 61.2191 84.6343 60.6653C84.6309 60.6488 84.4956 60.0586 84.4409 60.1182C84.2937 60.2788 84.301 60.8422 84.2695 61.0374C84.1805 61.5877 84.1064 62.1408 84.0105 62.6899C83.9783 62.8738 83.9522 63.3099 83.8208 63.4742C83.6998 63.6254 83.8317 63.0866 83.8536 62.8942C83.9032 62.4589 83.9713 62.024 84.0433 61.5919C84.1027 61.2356 84.1857 60.8625 84.2877 60.5158C84.3617 60.2644 84.5796 60.9182 84.5868 60.9389C84.7378 61.3686 85.0204 60.9877 85.1778 60.7201C85.3239 60.4717 85.2341 60.2975 85.1267 60.0489C84.734 59.1394 83.7467 58.6461 83.0256 58.028" stroke="white" stroke-linecap="round"/>
<path d="M72.6512 36.8197C73.0741 36.8197 73.2791 36.9074 73.6507 37.0313C73.9056 37.1162 73.9925 37.5417 74.0812 37.79C74.1696 38.0376 74.3308 38.3327 74.4569 38.5597C74.5023 38.6415 74.4736 38.2905 74.5554 38.1986C74.7615 37.9667 74.621 37.0558 74.621 36.7613C74.621 36.2072 74.805 37.1255 74.8691 37.2793C75.0423 37.695 75.1083 38.1816 75.2412 38.6181C75.3136 38.856 75.3808 39.1068 75.5549 39.3002C75.6387 39.3933 75.7066 39.76 75.7664 39.5993C75.9335 39.1503 76.0152 38.1691 75.657 37.7535C75.5158 37.5898 75.5245 37.3783 75.4017 37.2027C75.3088 37.0701 74.9562 36.0731 75.0551 36.7103C75.1417 37.2685 75.3397 37.7788 75.6424 38.2496C75.914 38.672 75.8952 39.2476 76.1677 39.6686C76.242 39.7835 76.4023 39.8315 76.4595 39.9532C76.5656 40.1786 76.6518 40.4019 76.7878 40.6134C76.9894 40.9271 76.9363 40.4559 76.8863 40.2961C76.7996 40.0185 76.8788 39.7232 76.7878 39.4388C76.7198 39.2264 76.5252 39.1231 76.5252 38.888C76.5252 38.8246 76.512 38.6807 76.5325 38.8698C76.5887 39.3895 76.6226 39.985 76.8389 40.4675C77.085 41.0165 77.1448 41.6564 77.2985 42.2403C77.3333 42.3725 77.4206 42.4413 77.4481 42.565C77.4814 42.715 77.6619 42.8786 77.7435 43.0027C77.9673 43.3428 78.1206 43.7147 78.298 44.0788C78.4585 44.4083 78.4763 44.2594 78.4986 43.9694C78.513 43.7823 78.6037 43.5569 78.5461 43.3712C78.4957 43.2088 78.4293 43.071 78.4293 42.8969C78.4293 42.7452 78.313 42.6105 78.2725 42.4665C78.2175 42.271 78.2672 42.068 78.2178 41.8756C78.1808 41.7317 78.057 41.622 77.9843 41.4962C77.8532 41.2693 77.7703 40.9839 77.6815 40.7374C77.5189 40.2857 77.5864 39.7851 77.2329 39.4315C76.8529 39.0515 76.7742 38.4687 76.4887 38.0016C76.1493 37.4462 76.2687 38.1081 76.3282 38.4831C76.443 39.2065 76.8157 39.7532 77.0213 40.4383C77.1927 41.0099 77.3602 41.5677 77.7217 42.0543C78.1875 42.6815 78.7172 43.2541 79.1151 43.9329C79.7015 44.9333 79.9527 46.1036 80.3043 47.1904C80.4409 47.6126 80.7012 47.8609 80.9098 48.23C81.1657 48.6827 81.1965 49.3965 81.6102 49.7512C81.6633 49.7967 81.6921 49.8743 81.7087 49.9408C81.8177 50.3768 81.7189 49.0358 81.6321 48.5948C81.3992 47.4117 80.4752 46.2852 79.8666 45.2972C79.5704 44.8164 78.9865 43.0328 78.495 44.2685C78.3448 44.6461 78.3318 45.0773 78.4585 45.465C78.5186 45.649 78.6627 45.7258 78.7321 45.8954C78.8425 46.1653 79.1516 46.4035 79.1516 46.6724C79.1516 46.6919 79.166 47.0618 79.2464 47.0044C79.3667 46.9185 79.2317 46.4316 79.2027 46.304C79.0629 45.6891 79.1982 44.9916 78.9911 44.3998C78.9654 44.3264 78.8788 44.2651 78.9072 44.4071C79.0175 44.9587 79.3984 45.4531 79.7425 45.8808C80.0175 46.2225 80.3416 46.5208 80.5633 46.9059C80.9909 47.6486 81.2157 48.5692 81.7817 49.2295C82.3962 49.9465 82.0954 48.2957 82.0407 48.0768C81.8186 47.1886 81.279 46.4113 81.0193 45.5598C80.9515 45.3376 80.7397 45.2595 80.629 45.0601C80.4581 44.7526 80.2546 44.4594 80.1037 44.1408C79.9581 43.8336 79.7148 43.5143 79.5164 43.2252C79.3239 42.9447 79.2013 42.6321 78.9874 42.368C78.7717 42.1015 78.4659 41.6028 78.1083 41.5327C77.5209 41.4175 76.9987 41.2846 76.3939 41.2846" stroke="white" stroke-linecap="round"/>
<path d="M61.8829 27.1676C61.6331 27.1676 61.4327 27.1095 61.2409 26.956C61.0538 26.8064 60.8455 26.7511 60.6682 26.6131C60.2409 26.2808 60.654 27.5258 60.6646 27.547C60.8642 27.9462 61.1769 28.2951 61.54 28.5465C61.775 28.7092 61.8278 28.7837 61.8173 28.4151C61.8042 27.9576 61.5181 27.5677 61.489 27.1165C61.4734 26.8758 61.5588 26.4012 61.9157 26.6788C62.109 26.8291 62.1898 26.9866 62.3571 27.1749C62.5583 27.4012 62.848 27.5702 63.032 27.795C63.1644 27.9568 63.3511 28.1386 63.4296 28.3312C63.6403 28.8486 63.6206 29.4601 63.9184 29.9399C64.3321 30.6065 65.0152 31.1032 65.2352 31.8733C65.4934 32.7769 65.2253 31.8548 64.9398 31.6471C64.9007 31.6186 64.8178 31.637 64.8522 31.6982C64.8954 31.775 65.012 31.7885 65.0674 31.8696C65.2742 32.1718 65.3765 32.5088 65.5964 32.7998C66.0251 33.3672 66.4135 33.9495 66.7454 34.558C66.9765 34.9816 67.7324 35.9004 68.252 35.9004" stroke="white" stroke-linecap="round"/>
<path d="M67.661 29.4001C67.661 29.0027 67.9839 28.4097 68.3906 28.8165C68.6659 29.0917 69.0887 29.3279 69.2223 29.7138C69.2995 29.9369 69.4849 30.0348 69.5944 30.2537C69.8562 30.7773 69.4329 29.836 69.3427 29.7065C69.1634 29.4494 68.9807 29.216 68.8429 28.9405C68.722 28.6987 68.4841 28.5092 68.4161 28.251C68.3586 28.0326 68.3147 27.9977 68.1717 27.8388C67.9003 27.5372 67.6782 27.1302 67.3218 26.9342C66.9542 26.732 66.6602 26.6424 66.2311 26.6424C66.0788 26.6424 65.4942 26.5466 65.4942 26.7409C65.4942 27.0366 65.7562 27.1244 65.9174 27.3136C66.2974 27.7597 67.1517 27.7011 67.4422 28.2292C67.5946 28.5064 67.8262 28.7791 68.055 28.9952C68.1538 29.0885 68.2719 29.1859 68.3906 29.2542C68.467 29.2982 68.2267 28.7804 68.2228 28.7727C68.0749 28.4813 67.8814 28.1394 67.6464 27.9045C67.3829 27.641 67.0295 27.4793 66.7564 27.2114C66.5178 26.9775 66.2168 26.6424 65.8481 26.6424C65.5361 26.6424 65.3664 26.5529 65.0857 26.4454C65.0006 26.4128 64.2462 26.1159 64.4473 26.3505C64.5837 26.5097 64.8924 26.7514 65.0857 26.8248C65.7743 27.086 66.3881 27.4353 67.0518 27.7476C67.3989 27.911 67.6107 28.1328 67.7924 28.4809C68.1543 29.1746 68.884 29.5372 69.2369 30.2537C69.3973 30.5794 69.6002 30.8697 69.7768 31.1875C69.965 31.5264 70.0882 31.9265 70.2218 32.2892C70.3367 32.601 70.5167 32.8294 70.7106 33.0917C70.8426 33.2703 70.8555 32.8858 70.8638 32.8144C70.9065 32.4464 70.8155 32.1173 70.6851 31.7748C70.4704 31.2114 70.2442 30.6277 69.8607 30.1588C69.7593 30.0349 69.5715 29.9071 69.5652 29.743C69.5559 29.503 69.5437 29.475 69.733 29.6299C70.1261 29.9516 70.3774 30.4735 70.6303 30.9103C70.7744 31.1592 71.1036 31.3982 71.1994 31.6617C71.2541 31.8122 71.2929 31.9515 71.3526 32.1068C71.4732 32.4203 71.5933 32.8727 71.8305 33.1099C72.1802 33.4597 72.5391 33.7285 72.8117 34.1568C73.0547 34.5386 73.1193 35.1177 73.5048 35.3898C73.6256 35.475 73.7774 35.8285 73.8659 35.9661C73.9738 36.134 74.0543 36.3157 74.1468 36.4914C74.3193 36.8191 74.3584 35.9326 74.3584 35.8202C74.3584 35.5752 74.3726 35.3911 74.2307 35.1782C74.1197 35.0117 73.9616 34.8232 73.8842 34.6529C73.5887 34.0028 73.2347 33.4324 72.8446 32.8473C72.6737 32.591 72.4231 32.3299 72.2208 32.0995C72.0466 31.9011 71.9946 32.5319 71.9946 32.6248C71.9946 33.0321 71.8829 33.6507 72.0931 34.0292C72.1714 34.1702 72.1784 34.3572 72.2244 34.5107C72.2864 34.7173 72.4172 34.8839 72.5053 35.0761C72.5515 35.1768 72.5794 35.33 72.5856 35.4409C72.5872 35.4701 72.2347 35.065 72.1697 34.9922C71.8299 34.6119 71.4122 34.2687 71.1812 33.8066C71.1121 33.6686 71.0601 33.5349 70.9769 33.4054C70.8378 33.189 70.8784 33.572 70.8784 33.6534C70.8784 34.0599 70.9065 34.4595 71.0535 34.8426C71.2665 35.3979 71.6666 35.6401 72.1186 35.9953C72.3752 36.1969 72.5529 36.4819 72.8482 36.6373C72.9052 36.6673 73.0454 36.8078 73.1108 36.7905C73.2309 36.7589 73.2422 36.3675 73.2422 36.2616C73.2422 36.0409 72.9955 35.8975 72.8628 35.7546C72.7068 35.5866 72.1259 35.2061 72.1259 34.9812" stroke="white" stroke-linecap="round"/>
<path d="M65.5 93.5C62.3 93.5 64.5 93.5 66 93.5H61.5L60.5 91" stroke="black"/>
<path d="M60.5 91L61.5 93.5H67" stroke="black"/>
<path d="M69.0239 85.9493C69.0285 85.8068 69.0594 85.6652 69.0594 85.5236" stroke="white" stroke-linecap="round"/>
<path d="M61 91L62 93H67L61 90L62 91L61.5 91.5" stroke="white"/>
<path d="M61.1108 90.838C61.0548 90.838 61.0504 90.9078 61.0504 90.9589" stroke="white"/>
<path d="M61.0201 91.0647C61.0201 90.9872 61.0352 90.9138 61.0352 90.838" stroke="white"/>
<path d="M61.0654 90.9286C61.0654 90.9599 61.0695 90.9832 61.047 91.0076C61.0344 91.0212 60.987 91.1143 61.0201 91.0647" stroke="white" stroke-linecap="round"/>
<path d="M61.2015 90.8077C61.1045 90.8077 60.9597 90.7423 60.9597 90.8984" stroke="white" stroke-linecap="round"/>
<path d="M60.9143 90.8984C60.9282 90.9002 60.9243 90.9033 60.9294 90.9136" stroke="white" stroke-linecap="round"/>
</svg>
