<svg width="176" height="175" viewBox="0 0 176 175" fill="none" xmlns="http://www.w3.org/2000/svg">
<path d="M95.4047 6.02728L96.8593 6.16326L95.7425 18.1112L94.4123 17.9868L94.4406 16.3417L95.4047 6.02728ZM89.0327 13.1684C89.1127 12.3127 89.3202 11.5762 89.6551 10.9589C89.9958 10.3368 90.4317 9.87018 90.963 9.5589C91.4943 9.24762 92.0944 9.12325 92.7633 9.18578C93.4686 9.25171 94.0419 9.47008 94.4833 9.84089C94.9251 10.2065 95.2504 10.6999 95.4591 11.321C95.6731 11.9425 95.7804 12.6692 95.7811 13.501L95.7105 14.2555C95.5567 15.0624 95.3196 15.7517 94.9994 16.3233C94.6796 16.8898 94.266 17.314 93.7583 17.5961C93.2564 17.8735 92.6476 17.9788 91.932 17.9119C91.2734 17.8503 90.7124 17.6122 90.249 17.1975C89.786 16.7776 89.4446 16.233 89.2247 15.5638C89.01 14.8951 88.9409 14.1511 89.0175 13.3317L89.0327 13.1684ZM90.4721 13.4677C90.4197 14.0277 90.4472 14.5456 90.5544 15.0211C90.6668 15.4972 90.8733 15.8905 91.1738 16.2011C91.4748 16.5065 91.8846 16.6834 92.4032 16.7319C92.8803 16.7765 93.2813 16.712 93.6061 16.5383C93.9362 16.3652 94.2101 16.1214 94.4278 15.8069C94.6455 15.4925 94.8244 15.1457 94.9644 14.7664L95.1411 12.8762C95.1056 12.5852 95.0405 12.3019 94.946 12.0263C94.8571 11.7459 94.729 11.4933 94.5617 11.2684C94.4001 11.0389 94.1902 10.8492 93.9322 10.6996C93.6794 10.5504 93.3715 10.4588 93.0085 10.4249C92.4847 10.376 92.0438 10.476 91.6857 10.725C91.3329 10.9745 91.0566 11.3279 90.8569 11.7853C90.6629 12.2379 90.5397 12.7443 90.4873 13.3043L90.4721 13.4677Z" fill="white"/>
<path d="M102.812 14.63C103.039 13.8444 103.392 13.1846 103.871 12.6507C104.351 12.1168 104.917 11.7492 105.572 11.5477C106.228 11.3412 106.933 11.347 107.689 11.5651C108.455 11.786 109.063 12.1592 109.513 12.6848C109.964 13.2054 110.248 13.8185 110.364 14.5242C110.485 15.2314 110.433 15.9778 110.206 16.7635L110.156 16.9361C109.931 17.7168 109.578 18.3765 109.097 18.9154C108.623 19.4507 108.056 19.8184 107.397 20.0184C106.742 20.2199 106.035 20.2109 105.274 19.9914C104.513 19.7719 103.907 19.4019 103.456 18.8813C103.009 18.3622 102.725 17.749 102.604 17.0419C102.484 16.3297 102.537 15.5833 102.762 14.8027L102.812 14.63ZM104.166 15.2077C104.012 15.7432 103.954 16.2631 103.993 16.7676C104.031 17.2721 104.179 17.7103 104.434 18.0823C104.695 18.4557 105.083 18.7167 105.599 18.8655C106.109 19.0128 106.572 18.9972 106.987 18.8187C107.406 18.6416 107.767 18.35 108.068 17.9437C108.37 17.5374 108.598 17.0665 108.752 16.5311L108.802 16.3584C108.957 15.823 109.015 15.303 108.976 14.7986C108.937 14.2941 108.787 13.8551 108.527 13.4817C108.267 13.1033 107.88 12.8397 107.364 12.691C106.859 12.5452 106.396 12.5633 105.974 12.7453C105.555 12.9223 105.194 13.214 104.893 13.6203C104.596 14.028 104.37 14.4996 104.216 15.0351L104.166 15.2077Z" fill="white"/>
<path d="M122.405 17.165L123.252 17.6177L122.432 18.7561L117.155 23.9448L116.335 23.5069L117.221 22.2619L122.405 17.165ZM117.543 22.5222L116.976 23.8491L116.114 23.3891L117.932 14.7769L119.214 15.4614L117.543 22.5222ZM126.636 19.4244L127.911 20.1051L121.766 26.4065L120.911 25.9502L121.796 24.7401L126.636 19.4244ZM122.104 24.7449L121.545 26.2887L120.725 25.8508L122.053 18.5362L122.542 17.2386L123.445 17.7207L122.104 24.7449Z" fill="white"/>
<path d="M129.713 31.4112L128.592 30.4742L134.014 23.9889L135.075 24.8758L133.977 26.3105L129.713 31.4112ZM131.918 27.2875C132.421 26.7028 132.975 26.2706 133.583 25.9908C134.193 25.707 134.806 25.5949 135.422 25.6546C136.044 25.7136 136.618 25.9619 137.141 26.3995C137.569 26.757 137.869 27.1442 138.043 27.5613C138.225 27.9777 138.256 28.4279 138.136 28.9118C138.021 29.3991 137.726 29.9265 137.252 30.4939L133.699 34.7435L132.578 33.8065L136.141 29.5448C136.425 29.2052 136.604 28.8897 136.677 28.5984C136.755 28.3105 136.737 28.0403 136.622 27.7881C136.51 27.5318 136.314 27.2868 136.035 27.053C135.759 26.8225 135.461 26.6716 135.14 26.6004C134.82 26.5292 134.492 26.527 134.158 26.5939C133.824 26.6607 133.502 26.7892 133.194 26.9794C132.889 27.1657 132.614 27.4047 132.371 27.6964L131.918 27.2875Z" fill="white"/>
<path d="M139.327 40.1902L138.356 39.098L147.327 31.1281L148.298 32.2202L139.327 40.1902Z" fill="white"/>
<path d="M147.022 42.2847C147.708 41.8394 148.406 41.572 149.118 41.4824C149.83 41.3929 150.499 41.4863 151.126 41.7626C151.757 42.0361 152.286 42.5027 152.714 43.1623C153.148 43.8307 153.363 44.5108 153.359 45.2028C153.359 45.8919 153.172 46.5411 152.798 47.1505C152.427 47.7643 151.898 48.2938 151.212 48.7391L151.061 48.8369C150.38 49.2793 149.681 49.5468 148.965 49.6392C148.256 49.7331 147.587 49.6397 146.957 49.359C146.331 49.0827 145.802 48.6125 145.371 47.9485C144.94 47.2845 144.724 46.6079 144.724 45.9188C144.726 45.2341 144.913 44.5848 145.285 43.9711C145.661 43.3544 146.19 42.8249 146.871 42.3825L147.022 42.2847ZM147.667 43.6079C147.199 43.9113 146.815 44.2663 146.514 44.673C146.213 45.0796 146.037 45.5072 145.987 45.9559C145.939 46.4089 146.062 46.8604 146.354 47.3104C146.643 47.7559 147.003 48.0471 147.433 48.1838C147.866 48.3249 148.33 48.3406 148.824 48.2311C149.318 48.1215 149.798 47.915 150.266 47.6116L150.416 47.5137C150.884 47.2103 151.268 46.8552 151.569 46.4486C151.87 46.042 152.045 45.6122 152.092 45.1592C152.144 44.7033 152.024 44.2504 151.732 43.8004C151.445 43.3592 151.083 43.0695 150.646 42.9312C150.213 42.7902 149.749 42.7744 149.255 42.8839C148.764 42.9979 148.285 43.2066 147.817 43.51L147.667 43.6079Z" fill="white"/>
<path d="M157.871 58.5247C158.339 58.3326 158.652 58.0404 158.812 57.6481C158.978 57.2586 158.951 56.7942 158.729 56.2547C158.592 55.9223 158.413 55.6522 158.193 55.4445C157.974 55.2415 157.742 55.1089 157.497 55.0464C157.252 54.984 157.018 54.9983 156.797 55.0894L156.241 53.7383C156.617 53.5838 157.033 53.5619 157.489 53.6726C157.951 53.7813 158.39 54.0203 158.806 54.3896C159.23 54.7618 159.571 55.2634 159.831 55.8944C160.065 56.4628 160.175 57.0058 160.163 57.5233C160.15 58.0409 160 58.5028 159.71 58.9089C159.428 59.3178 158.995 59.6421 158.413 59.8818L154.771 61.3794C154.511 61.4864 154.243 61.622 153.967 61.7861C153.693 61.9552 153.469 62.129 153.294 62.3077L153.179 62.3552L152.599 60.9463C152.726 60.8154 152.909 60.6783 153.148 60.5347C153.392 60.3892 153.625 60.2709 153.847 60.1798L157.871 58.5247ZM156.412 59.4122L155.859 58.0683C155.546 57.3072 155.184 56.7691 154.773 56.4539C154.362 56.1387 153.915 56.0801 153.433 56.2782C153.058 56.4327 152.791 56.6887 152.634 57.0461C152.479 57.4084 152.502 57.8328 152.702 58.3193C152.87 58.7287 153.105 59.0544 153.407 59.2961C153.71 59.5379 154.026 59.6979 154.357 59.7759C154.687 59.854 154.973 59.8517 155.215 59.7691L154.81 60.6116C154.594 60.661 154.332 60.6616 154.025 60.6133C153.718 60.565 153.4 60.4622 153.07 60.3048C152.748 60.1503 152.442 59.9327 152.152 59.6521C151.868 59.3744 151.64 59.0235 151.465 58.5996C151.247 58.0698 151.157 57.5634 151.195 57.0804C151.24 56.6002 151.393 56.177 151.653 55.8108C151.916 55.4495 152.261 55.1806 152.69 55.0043C153.533 54.6577 154.302 54.7131 154.997 55.1707C155.697 55.6262 156.268 56.3911 156.709 57.4653L157.345 59.0115L156.412 59.4122Z" fill="white"/>
<path d="M168.143 70.7884L168.439 72.219L156.688 74.6525L156.417 73.3443L157.998 72.8892L168.143 70.7884ZM159.448 66.7889C160.289 66.6146 161.054 66.5971 161.743 66.7364C162.437 66.8798 163.011 67.1599 163.464 67.5766C163.918 67.9933 164.212 68.5307 164.349 69.1886C164.492 69.8822 164.452 70.4943 164.226 71.025C164.006 71.5546 163.63 72.0102 163.097 72.3917C162.566 72.7784 161.902 73.094 161.107 73.3384L160.365 73.4921C159.549 73.5814 158.82 73.5568 158.18 73.4181C157.544 73.2784 157.018 73.0072 156.599 72.6046C156.187 72.2059 155.908 71.6547 155.762 70.9509C155.628 70.3032 155.691 69.697 155.952 69.1324C156.218 68.5668 156.638 68.0808 157.214 67.6744C157.79 67.2731 158.481 66.989 159.287 66.8221L159.448 66.7889ZM159.583 68.2527C159.032 68.3668 158.545 68.5448 158.122 68.7867C157.7 69.0337 157.384 69.3464 157.176 69.7247C156.972 70.102 156.923 70.5456 157.028 71.0557C157.125 71.5249 157.305 71.8893 157.566 72.149C157.828 72.4139 158.142 72.6043 158.506 72.7203C158.87 72.8363 159.254 72.9057 159.658 72.9285L161.517 72.5435C161.785 72.4242 162.037 72.2789 162.273 72.1078C162.514 71.9406 162.718 71.7442 162.884 71.5183C163.057 71.2965 163.176 71.0403 163.244 70.7498C163.312 70.4643 163.31 70.1431 163.236 69.7861C163.129 69.2709 162.904 68.8787 162.561 68.6093C162.219 68.3451 161.8 68.1845 161.305 68.1276C160.815 68.0748 160.295 68.1054 159.744 68.2194L159.583 68.2527Z" fill="white"/>
<path d="M160.824 97.9645C160.123 97.811 159.505 97.5381 158.971 97.1458C158.442 96.754 158.047 96.2377 157.785 95.5969C157.523 94.9562 157.441 94.18 157.539 93.2685C157.633 92.383 157.931 91.6317 158.432 91.0147C158.938 90.3983 159.604 89.9483 160.43 89.6647C161.257 89.3811 162.196 89.2955 163.247 89.4078L164.389 89.5298C165.445 89.6427 166.345 89.9247 167.088 90.376C167.835 90.833 168.39 91.4265 168.752 92.1566C169.114 92.8867 169.245 93.7178 169.145 94.65C169.054 95.5045 168.816 96.2098 168.432 96.7659C168.053 97.3225 167.561 97.7336 166.957 97.999C166.352 98.2695 165.672 98.4038 164.918 98.4018L165.079 96.8948C165.884 96.8655 166.535 96.6784 167.032 96.3335C167.535 95.9944 167.833 95.3898 167.926 94.5197C167.997 93.8516 167.888 93.2743 167.6 92.7878C167.317 92.3018 166.887 91.9102 166.311 91.613C165.735 91.3209 165.045 91.132 164.242 91.0463L163.085 90.9226C162.344 90.8435 161.658 90.8748 161.024 91.0167C160.396 91.1591 159.878 91.4233 159.47 91.8092C159.062 92.2003 158.822 92.7299 158.751 93.398C158.683 94.035 158.73 94.5507 158.892 94.9452C159.053 95.3448 159.313 95.6607 159.67 95.8927C160.028 96.1299 160.466 96.3181 160.985 96.4574L160.824 97.9645Z" fill="white"/>
<path d="M165.006 113.746L164.501 115.315L154.966 107.818L155.325 106.702L156.841 107.601L165.006 113.746ZM156.781 107.787L155.018 107.654L155.378 106.539L167.494 106.027L166.988 107.596L156.781 107.787Z" fill="white"/>
<path d="M154.659 135.295L153.807 136.482L144.059 129.484L144.838 128.399L146.243 129.254L154.659 135.295ZM151.713 126.189C152.411 126.69 152.942 127.241 153.306 127.842C153.671 128.45 153.853 129.062 153.854 129.678C153.854 130.293 153.659 130.874 153.267 131.42C152.854 131.995 152.376 132.38 151.833 132.574C151.294 132.77 150.704 132.802 150.063 132.669C149.418 132.539 148.737 132.265 148.018 131.846L147.403 131.404C146.784 130.863 146.309 130.311 145.977 129.746C145.65 129.184 145.492 128.612 145.505 128.032C145.519 127.458 145.736 126.88 146.155 126.296C146.54 125.759 147.029 125.395 147.621 125.204C148.217 125.017 148.86 124.997 149.549 125.145C150.234 125.297 150.911 125.613 151.58 126.093L151.713 126.189ZM150.728 127.28C150.271 126.952 149.81 126.714 149.346 126.567C148.878 126.423 148.434 126.403 148.014 126.505C147.599 126.611 147.239 126.875 146.935 127.299C146.656 127.688 146.509 128.067 146.495 128.435C146.478 128.807 146.55 129.166 146.711 129.513C146.873 129.86 147.082 130.189 147.338 130.502L148.881 131.609C149.15 131.725 149.427 131.812 149.713 131.87C150 131.934 150.282 131.951 150.561 131.921C150.841 131.897 151.11 131.812 151.37 131.664C151.626 131.522 151.861 131.302 152.073 131.006C152.38 130.578 152.517 130.147 152.482 129.713C152.445 129.282 152.28 128.865 151.986 128.462C151.693 128.066 151.318 127.704 150.861 127.376L150.728 127.28Z" fill="white"/>
<path d="M143.48 137.357C144.045 137.948 144.437 138.586 144.657 139.269C144.876 139.952 144.908 140.626 144.753 141.293C144.6 141.964 144.24 142.571 143.671 143.113C143.094 143.664 142.466 144.001 141.785 144.125C141.108 144.252 140.435 144.189 139.767 143.933C139.095 143.682 138.477 143.26 137.912 142.669L137.788 142.539C137.228 141.951 136.835 141.313 136.612 140.627C136.389 139.947 136.357 139.272 136.516 138.602C136.672 137.935 137.036 137.328 137.609 136.782C138.182 136.235 138.807 135.898 139.484 135.771C140.157 135.646 140.83 135.71 141.502 135.962C142.177 136.217 142.795 136.639 143.356 137.227L143.48 137.357ZM142.299 138.235C141.915 137.832 141.495 137.52 141.039 137.299C140.584 137.078 140.131 136.985 139.681 137.019C139.227 137.056 138.806 137.26 138.418 137.63C138.033 137.997 137.814 138.404 137.759 138.852C137.701 139.304 137.771 139.762 137.97 140.227C138.169 140.693 138.461 141.127 138.845 141.53L138.969 141.66C139.354 142.063 139.774 142.375 140.229 142.596C140.685 142.817 141.139 142.908 141.593 142.871C142.051 142.838 142.474 142.636 142.862 142.266C143.243 141.902 143.46 141.493 143.515 141.038C143.574 140.586 143.504 140.127 143.305 139.662C143.102 139.201 142.808 138.768 142.423 138.365L142.299 138.235Z" fill="white"/>
<path d="M131.434 153.01L130.617 153.516L130.044 152.235L128.207 145.066L128.997 144.577L129.629 145.968L131.434 153.01ZM129.242 146.116L128.379 144.959L129.21 144.445L135.745 150.341L134.51 151.106L129.242 146.116ZM127.356 155.535L126.127 156.296L123.763 147.817L124.586 147.308L125.188 148.681L127.356 155.535ZM125.03 148.944L123.975 147.686L124.766 147.196L130.425 152.018L131.301 153.092L130.431 153.631L125.03 148.944Z" fill="white"/>
<path d="M115.448 152.176L116.821 151.679L119.699 159.627L118.398 160.098L117.711 158.428L115.448 152.176ZM117.902 156.156C118.155 156.885 118.249 157.582 118.186 158.247C118.124 158.918 117.912 159.504 117.551 160.006C117.187 160.514 116.684 160.885 116.042 161.117C115.518 161.307 115.032 161.372 114.584 161.312C114.133 161.26 113.728 161.06 113.37 160.713C113.007 160.368 112.7 159.848 112.448 159.153L110.563 153.944L111.936 153.447L113.827 158.67C113.978 159.086 114.16 159.4 114.375 159.61C114.585 159.822 114.827 159.942 115.103 159.97C115.381 160.002 115.691 159.956 116.034 159.832C116.372 159.71 116.652 159.528 116.875 159.287C117.098 159.045 117.265 158.764 117.375 158.441C117.485 158.119 117.536 157.776 117.527 157.414C117.519 157.057 117.451 156.699 117.321 156.342L117.902 156.156Z" fill="white"/>
<path d="M102.991 156.068L104.423 155.782L106.769 167.55L105.336 167.836L102.991 156.068Z" fill="white"/>
<path d="M97.3367 161.642C97.3747 162.459 97.2526 163.197 96.9705 163.856C96.6883 164.516 96.2698 165.047 95.7149 165.448C95.1603 165.854 94.4901 166.076 93.7045 166.112C92.9085 166.149 92.2129 165.991 91.6178 165.638C91.0228 165.291 90.5569 164.801 90.22 164.17C89.8778 163.54 89.6877 162.816 89.6497 161.999L89.6414 161.82C89.6037 161.008 89.7257 160.27 90.0077 159.605C90.2846 158.946 90.7031 158.415 91.2632 158.014C91.8181 157.612 92.491 157.393 93.2818 157.357C94.0726 157.32 94.7654 157.475 95.3604 157.823C95.9501 158.171 96.416 158.66 96.7582 159.291C97.1006 159.927 97.2907 160.651 97.3284 161.462L97.3367 161.642ZM95.869 161.53C95.8432 160.973 95.7308 160.462 95.5318 159.997C95.3329 159.532 95.0525 159.164 94.6907 158.895C94.3236 158.625 93.8721 158.502 93.3362 158.527C92.8055 158.552 92.3725 158.716 92.0373 159.018C91.6968 159.32 91.4491 159.713 91.2942 160.194C91.1394 160.676 91.0749 161.195 91.1008 161.752L91.1091 161.931C91.135 162.488 91.2474 162.999 91.4463 163.464C91.6452 163.929 91.9282 164.297 92.2953 164.567C92.6626 164.841 93.1142 164.966 93.6501 164.942C94.1756 164.917 94.6084 164.751 94.9487 164.443C95.2891 164.141 95.5368 163.748 95.6917 163.267C95.8414 162.785 95.9033 162.266 95.8774 161.71L95.869 161.53Z" fill="white"/>
<path d="M77.734 162.81C77.6644 163.31 77.7588 163.728 78.0171 164.064C78.2695 164.404 78.6846 164.614 79.2624 164.695C79.6183 164.744 79.9416 164.726 80.2322 164.64C80.5177 164.554 80.7492 164.42 80.9268 164.24C81.1044 164.06 81.2097 163.851 81.2427 163.613L82.6897 163.815C82.6338 164.217 82.4429 164.588 82.1171 164.926C81.7906 165.27 81.3629 165.528 80.8339 165.702C80.2991 165.88 79.6938 165.922 79.018 165.828C78.4093 165.743 77.8845 165.565 77.4438 165.294C77.003 165.022 76.6802 164.659 76.4752 164.205C76.2643 163.755 76.2023 163.217 76.2891 162.593L76.8315 158.693C76.8703 158.415 76.8883 158.115 76.8857 157.794C76.8778 157.472 76.8407 157.191 76.7742 156.95L76.7915 156.826L78.3004 157.036C78.3496 157.211 78.3759 157.438 78.3791 157.717C78.3817 158.002 78.3664 158.263 78.3334 158.5L77.734 162.81ZM77.7034 161.102L79.1426 161.302C79.9577 161.415 80.605 161.374 81.0845 161.178C81.564 160.982 81.8397 160.626 81.9114 160.11C81.9674 159.707 81.8806 159.348 81.6511 159.032C81.4164 158.716 81.0386 158.521 80.5176 158.449C80.0791 158.388 79.6792 158.427 79.3181 158.566C78.957 158.705 78.6594 158.898 78.4253 159.144C78.1913 159.39 78.0489 159.638 77.9983 159.889L77.475 159.114C77.5413 158.902 77.6726 158.676 77.8691 158.435C78.0657 158.194 78.3149 157.971 78.6169 157.766C78.913 157.566 79.2553 157.411 79.6438 157.302C80.0264 157.197 80.4447 157.177 80.8987 157.24C81.4661 157.319 81.9489 157.496 82.3469 157.772C82.7391 158.053 83.0276 158.398 83.2125 158.808C83.3923 159.217 83.4503 159.651 83.3864 160.11C83.2609 161.012 82.8253 161.649 82.0798 162.018C81.3336 162.393 80.3853 162.5 79.2349 162.34L77.5789 162.11L77.7034 161.102Z" fill="white"/>
<path d="M61.9944 165.512L60.6093 165.048L64.424 153.67L65.6907 154.095L65.2876 155.69L61.9944 165.512ZM69.8283 160.014C69.5551 160.829 69.185 161.498 68.7179 162.023C68.2443 162.551 67.7133 162.906 67.125 163.088C66.5367 163.269 65.9241 163.253 65.287 163.04C64.6155 162.815 64.1071 162.471 63.7621 162.009C63.4154 161.553 63.2113 160.998 63.1498 160.346C63.0835 159.692 63.1449 158.96 63.3341 158.15L63.575 157.431C63.909 156.681 64.2971 156.064 64.7394 155.58C65.18 155.102 65.6796 154.783 66.2382 154.624C66.7902 154.469 67.407 154.505 68.0884 154.734C68.7156 154.944 69.2074 155.304 69.5639 155.814C69.9188 156.328 70.1269 156.936 70.1882 157.638C70.2446 158.338 70.142 159.078 69.8804 159.858L69.8283 160.014ZM68.4953 159.394C68.6741 158.861 68.7656 158.35 68.7697 157.863C68.7689 157.374 68.6577 156.944 68.436 156.573C68.2127 156.207 67.8541 155.941 67.3603 155.775C66.906 155.623 66.5008 155.594 66.1449 155.689C65.7841 155.782 65.4618 155.957 65.178 156.214C64.8943 156.47 64.6409 156.767 64.418 157.104L63.8145 158.904C63.7827 159.195 63.7813 159.486 63.8105 159.776C63.833 160.069 63.9001 160.344 64.0116 160.602C64.1166 160.862 64.2776 161.095 64.4946 161.299C64.7067 161.502 64.9856 161.662 65.3313 161.777C65.83 161.945 66.2821 161.948 66.6876 161.787C67.0881 161.625 67.4377 161.344 67.7366 160.944C68.0288 160.548 68.2643 160.083 68.4431 159.55L68.4953 159.394Z" fill="white"/>
<path d="M42.3009 145.534C42.7875 145.006 43.335 144.611 43.9434 144.348C44.5488 144.089 45.194 144.008 45.8791 144.106C46.5643 144.204 47.2756 144.525 48.0132 145.069C48.7298 145.598 49.2279 146.235 49.5076 146.978C49.7842 147.726 49.8362 148.528 49.6636 149.385C49.491 150.242 49.0908 151.095 48.4629 151.946L47.7809 152.87C47.15 153.725 46.4522 154.359 45.6877 154.772C44.9159 155.186 44.1235 155.365 43.3105 155.309C42.4975 155.253 41.7139 154.946 40.9596 154.39C40.2682 153.879 39.7795 153.318 39.4935 152.706C39.2044 152.097 39.098 151.465 39.1742 150.809C39.2462 150.151 39.4735 149.496 39.856 148.846L41.0755 149.746C40.6945 150.456 40.5271 151.112 40.5734 151.716C40.6124 152.321 40.984 152.883 41.688 153.403C42.2286 153.802 42.7817 154 43.3473 153.996C43.9098 153.997 44.4647 153.824 45.0121 153.477C45.5553 153.127 46.0665 152.627 46.5459 151.978L47.2372 151.041C47.6795 150.442 47.9993 149.833 48.1966 149.215C48.3909 148.601 48.4244 148.021 48.2973 147.474C48.166 146.924 47.83 146.449 47.2894 146.05C46.774 145.67 46.3051 145.45 45.8828 145.391C45.4562 145.328 45.0525 145.393 44.6717 145.584C44.2867 145.773 43.9029 146.056 43.5204 146.434L42.3009 145.534Z" fill="white"/>
<path d="M26.5582 141.185L25.457 139.958L36.7347 135.493L37.5175 136.365L35.9776 137.222L26.5582 141.185ZM35.8471 137.077L36.8495 135.621L37.6323 136.493L31.9754 147.219L30.8742 145.992L35.8471 137.077Z" fill="white"/>
<path d="M13.1157 121.392L12.5179 120.059L23.4673 115.149L24.0139 116.368L22.5681 117.153L13.1157 121.392ZM22.4684 123.422C21.6843 123.774 20.9411 123.956 20.2389 123.968C19.5297 123.978 18.9089 123.828 18.3764 123.519C17.8439 123.21 17.4402 122.749 17.1653 122.136C16.8754 121.49 16.7833 120.883 16.8887 120.316C16.9894 119.752 17.2587 119.226 17.6965 118.738C18.1322 118.246 18.7119 117.795 19.4356 117.385L20.127 117.075C20.9051 116.811 21.6218 116.678 22.277 116.676C22.9274 116.675 23.5004 116.826 23.9959 117.129C24.4844 117.429 24.8758 117.907 25.1699 118.563C25.4405 119.167 25.5095 119.772 25.3766 120.38C25.2391 120.99 24.9332 121.555 24.459 122.076C23.9826 122.592 23.369 123.018 22.6181 123.355L22.4684 123.422ZM22.0203 122.022C22.5336 121.792 22.9708 121.513 23.332 121.186C23.691 120.853 23.9317 120.48 24.054 120.065C24.1717 119.653 24.1239 119.209 23.9108 118.734C23.7147 118.297 23.4611 117.98 23.1501 117.782C22.8368 117.58 22.4898 117.462 22.1089 117.427C21.7281 117.393 21.3381 117.408 20.939 117.472L19.2068 118.249C18.971 118.423 18.7564 118.62 18.5631 118.838C18.3628 119.053 18.206 119.289 18.0927 119.545C17.9724 119.799 17.9107 120.075 17.9074 120.373C17.9021 120.667 17.974 120.98 18.1232 121.312C18.3384 121.792 18.6425 122.127 19.0356 122.316C19.4264 122.5 19.8701 122.567 20.3665 122.515C20.856 122.461 21.3574 122.319 21.8706 122.089L22.0203 122.022Z" fill="white"/>
<path d="M16.9534 110.69C16.1577 110.878 15.4097 110.895 14.7091 110.74C14.0086 110.585 13.4098 110.272 12.9127 109.801C12.4105 109.332 12.0686 108.714 11.8871 107.949C11.7031 107.174 11.7294 106.461 11.9659 105.811C12.1973 105.161 12.5918 104.613 13.1492 104.165C13.7055 103.712 14.3814 103.391 15.1771 103.202L15.3519 103.161C16.1424 102.973 16.8905 102.956 17.5961 103.11C18.2954 103.26 18.8943 103.573 19.3926 104.049C19.8897 104.52 20.2296 105.14 20.4124 105.91C20.5951 106.681 20.5708 107.39 20.3394 108.039C20.1067 108.683 19.7123 109.232 19.156 109.685C18.5947 110.14 17.9188 110.46 17.1282 110.648L16.9534 110.69ZM16.791 109.227C17.3332 109.098 17.8145 108.893 18.2348 108.611C18.655 108.329 18.9643 107.986 19.1624 107.58C19.3594 107.169 19.396 106.703 19.2721 106.181C19.1495 105.664 18.9086 105.269 18.5493 104.995C18.1888 104.717 17.7576 104.546 17.2555 104.483C16.7535 104.421 16.2314 104.453 15.6891 104.582L15.5143 104.623C14.972 104.752 14.4908 104.957 14.0705 105.239C13.6502 105.521 13.3416 105.867 13.1446 106.278C12.9426 106.69 12.9035 107.157 13.0273 107.679C13.1487 108.19 13.3922 108.585 13.7578 108.862C14.1182 109.141 14.5495 109.311 15.0515 109.374C15.5524 109.432 16.0739 109.397 16.6161 109.268L16.791 109.227Z" fill="white"/>
<path d="M9.52704 92.3825L9.50307 91.4218L10.8979 91.5746L18.0134 93.6087L18.0366 94.5381L16.5166 94.3806L9.52704 92.3825ZM16.5845 93.9726L18.0185 93.8117L18.0428 94.788L9.65351 97.4512L9.61727 95.9985L16.5845 93.9726ZM9.40739 87.5871L9.37134 86.1422L17.883 88.3837L17.9072 89.3522L16.418 89.1784L9.40739 87.5871ZM16.2706 88.9085L17.8893 88.6337L17.9124 89.5631L10.8932 92.0124L9.52314 92.2263L9.49761 91.2032L16.2706 88.9085Z" fill="white"/>
<path d="M18.3166 78.9293L18.0541 80.3664L9.73857 78.8473L9.98707 77.487L11.7764 77.7345L18.3166 78.9293ZM13.6417 79.0441C12.8853 78.8954 12.2357 78.6258 11.6928 78.2354C11.1449 77.8441 10.7451 77.3661 10.4936 76.8013C10.2378 76.2304 10.1712 75.6093 10.2939 74.9382C10.394 74.3899 10.5826 73.9373 10.8596 73.5802C11.1324 73.2171 11.5088 72.9682 11.9887 72.8335C12.4696 72.6937 13.0738 72.6902 13.8014 72.8231L19.2503 73.8185L18.9877 75.2557L13.5235 74.2575C13.088 74.1779 12.7253 74.1778 12.4355 74.2572C12.1466 74.3315 11.9207 74.4809 11.758 74.7053C11.5901 74.9288 11.4734 75.2198 11.4079 75.5785C11.3433 75.932 11.3591 76.2658 11.4552 76.5798C11.5514 76.8939 11.711 77.1798 11.9339 77.4376C12.1568 77.6954 12.4271 77.9116 12.7446 78.0861C13.0571 78.2596 13.4003 78.3806 13.7743 78.4489L13.6417 79.0441Z" fill="white"/>
<path d="M21.2267 66.2194L20.7519 67.601L9.40346 63.7006L9.87831 62.319L21.2267 66.2194Z" fill="white"/>
<path d="M19.2693 58.4958C18.5451 58.1161 17.9696 57.638 17.5427 57.0613C17.1158 56.4847 16.8693 55.8556 16.8032 55.174C16.7325 54.4901 16.8797 53.7998 17.2449 53.1033C17.6149 52.3975 18.1025 51.8769 18.7077 51.5414C19.3082 51.2035 19.9658 51.0484 20.6805 51.0762C21.3976 51.0993 22.1183 51.3007 22.8425 51.6804L23.0016 51.7638C23.7212 52.1411 24.2968 52.6192 24.7283 53.1983C25.1576 53.7703 25.4041 54.3994 25.4678 55.0856C25.5339 55.7671 25.3831 56.4584 25.0155 57.1596C24.6479 57.8607 24.1638 58.3803 23.5633 58.7182C22.9651 59.0515 22.3075 59.2065 21.5904 59.1834C20.8687 59.1579 20.1481 58.9565 19.4285 58.5792L19.2693 58.4958ZM20.1068 57.2853C20.6004 57.5441 21.0982 57.7051 21.6002 57.7684C22.1022 57.8316 22.561 57.7752 22.9768 57.5991C23.3949 57.4185 23.7285 57.0906 23.9776 56.6155C24.2243 56.1449 24.3018 55.6887 24.2101 55.2466C24.1209 54.7999 23.9075 54.3881 23.5699 54.0112C23.2324 53.6343 22.8168 53.3165 22.3233 53.0577L22.1641 52.9743C21.6705 52.7155 21.1728 52.5545 20.6708 52.4913C20.1688 52.428 19.7087 52.4867 19.2905 52.6674C18.8678 52.8456 18.5318 53.1723 18.2828 53.6474C18.0385 54.1133 17.9633 54.5708 18.0572 55.0199C18.1464 55.4666 18.3598 55.8784 18.6974 56.2553C19.0373 56.6276 19.4541 56.9431 19.9477 57.2019L20.1068 57.2853Z" fill="white"/>
<path d="M28.098 41.0931C27.7012 40.7803 27.2928 40.6507 26.8726 40.7041C26.4516 40.7502 26.0605 41.0023 25.6993 41.4604C25.4768 41.7426 25.3292 42.0308 25.2565 42.3249C25.1869 42.615 25.1852 42.8822 25.2512 43.1266C25.3172 43.371 25.4443 43.5673 25.6324 43.7157L24.7279 44.8629C24.4089 44.6114 24.1855 44.2595 24.0578 43.8074C23.9261 43.352 23.9189 42.8522 24.0362 42.308C24.1527 41.7565 24.4221 41.2128 24.8445 40.677C25.225 40.1944 25.6438 39.8315 26.1009 39.5883C26.5579 39.345 27.0343 39.2497 27.5301 39.3023C28.0249 39.3476 28.5198 39.5654 29.0147 39.9555L32.1068 42.3934C32.3277 42.5675 32.5774 42.7345 32.8559 42.8944C33.1376 43.0502 33.3991 43.1602 33.6403 43.2243L33.7385 43.3017L32.7953 44.4981C32.6193 44.4522 32.41 44.3601 32.1674 44.2219C31.9207 44.0805 31.7033 43.9356 31.5152 43.7873L28.098 41.0931ZM29.5876 41.9293L28.6879 43.0704C28.1784 43.7167 27.8873 44.2963 27.8145 44.8092C27.7416 45.3222 27.9097 45.7399 28.3187 46.0624C28.6378 46.3139 28.9915 46.4204 29.3801 46.3819C29.7719 46.3392 30.1306 46.1113 30.4563 45.6982C30.7304 45.3506 30.8986 44.9858 30.961 44.6039C31.0233 44.2219 31.0074 43.8678 30.9131 43.5415C30.8189 43.2151 30.6764 42.9668 30.4857 42.7965L31.4186 42.7362C31.5679 42.9003 31.6968 43.1279 31.8054 43.4192C31.914 43.7104 31.9806 44.0382 32.0052 44.4024C32.0289 44.7594 31.9896 45.133 31.8875 45.5233C31.7845 45.9064 31.5911 46.2779 31.3073 46.6378C30.9526 47.0877 30.5555 47.4147 30.1161 47.6187C29.6758 47.8154 29.2322 47.8902 28.7853 47.8429C28.3416 47.7916 27.9378 47.6224 27.5737 47.3354C26.858 46.7711 26.5289 46.0739 26.5864 45.2438C26.6399 44.4105 27.0262 43.5378 27.7452 42.6257L28.7803 41.3128L29.5876 41.9293Z" fill="white"/>
<path d="M33.6958 26.1448L34.7942 25.1816L42.7058 34.2042L41.7014 35.085L40.5257 33.9338L33.6958 26.1448ZM34.504 35.6813C33.9374 35.0351 33.545 34.3783 33.3268 33.7107C33.109 33.0357 33.0696 32.3983 33.2086 31.7985C33.3476 31.1986 33.6697 30.6772 34.1749 30.2343C34.7075 29.7672 35.2601 29.5009 35.8328 29.4351C36.4021 29.3654 36.984 29.4682 37.5786 29.7434C38.1771 30.0152 38.7788 30.4366 39.3835 31.0078L39.8831 31.5775C40.3635 32.2439 40.7013 32.8898 40.8964 33.5152C41.0882 34.1368 41.1121 34.7289 40.9681 35.2915C40.8247 35.8468 40.4827 36.3614 39.9423 36.8352C39.445 37.2713 38.8864 37.5152 38.2667 37.5668C37.6435 37.6145 37.0133 37.4883 36.376 37.1881C35.7427 36.8845 35.1547 36.4234 34.6122 35.8046L34.504 35.6813ZM35.7106 34.8414C36.0815 35.2644 36.4765 35.6003 36.8957 35.8492C37.3188 36.0947 37.7464 36.2151 38.1785 36.2102C38.6073 36.2014 39.0174 36.0253 39.409 35.6819C39.7693 35.366 39.998 35.0304 40.0951 34.6751C40.1961 34.3163 40.2073 33.9498 40.1285 33.5756C40.0497 33.2013 39.9207 32.833 39.7415 32.4707L38.4898 31.0433C38.254 30.8691 38.0034 30.7216 37.7383 30.6009C37.4735 30.4728 37.202 30.3922 36.9237 30.3592C36.6458 30.3188 36.3639 30.3409 36.0778 30.4255C35.7957 30.5067 35.5176 30.6674 35.2435 30.9078C34.8479 31.2546 34.6176 31.6436 34.5524 32.0749C34.4911 32.5027 34.558 32.9463 34.753 33.4056C34.9484 33.8577 35.2316 34.2951 35.6025 34.7181L35.7106 34.8414Z" fill="white"/>
<path d="M60.8864 19.1466C61.0979 19.8325 61.1644 20.5046 61.0858 21.1627C61.0052 21.8161 60.7503 22.4143 60.3212 22.9573C59.8921 23.5004 59.2569 23.9538 58.4155 24.3176C57.598 24.6711 56.7976 24.7817 56.0141 24.6495C55.2285 24.5126 54.5089 24.1541 53.8553 23.5743C53.2017 22.9944 52.6651 22.2192 52.2454 21.2488L51.7896 20.1946C51.3679 19.2194 51.1707 18.2975 51.198 17.4289C51.228 16.5534 51.4717 15.7784 51.9291 15.104C52.3865 14.4296 53.0454 13.9063 53.9059 13.5342C54.6947 13.1932 55.4257 13.053 56.0989 13.1137C56.7699 13.1697 57.3697 13.3955 57.8983 13.7911C58.4316 14.1847 58.883 14.7102 59.2524 15.3676L57.8612 15.9691C57.4398 15.2831 56.9565 14.8084 56.4112 14.5448C55.8687 14.2744 55.1959 14.3128 54.3928 14.66C53.7761 14.9267 53.3269 15.3053 53.0454 15.7959C52.7618 16.2817 52.6323 16.8484 52.657 17.4959C52.6864 18.1414 52.8613 18.8347 53.1817 19.5757L53.6438 20.6441C53.9394 21.3277 54.3047 21.9103 54.7399 22.3917C55.1729 22.8683 55.6578 23.1892 56.1945 23.3543C56.736 23.5174 57.3151 23.4656 57.9318 23.199C58.5198 22.9447 58.9456 22.6499 59.2092 22.3147C59.4776 21.9773 59.6247 21.5959 59.6507 21.1705C59.6815 20.7429 59.6297 20.2688 59.4953 19.7481L60.8864 19.1466Z" fill="white"/>
<path d="M72.6094 7.73773L74.2244 7.40722L72.3796 19.3955L71.2316 19.6305L71.2697 17.8683L72.6094 7.73773ZM71.461 17.8292L72.2113 19.43L71.0632 19.665L64.6647 9.36367L66.2797 9.03315L71.461 17.8292Z" fill="white"/>
</svg>
