<svg xmlns="http://www.w3.org/2000/svg" version="1.1" xmlns:xlink="http://www.w3.org/1999/xlink" xmlns:svgjs="http://svgjs.com/svgjs" width="1000" height="1000"><rect width="1000" height="1000" rx="500" ry="500" fill="#ffffff"></rect><g transform="matrix(1,0,0,1,0,0)"><svg xmlns="http://www.w3.org/2000/svg" version="1.1" xmlns:xlink="http://www.w3.org/1999/xlink" xmlns:svgjs="http://svgjs.com/svgjs" width="333.000000pt" height="332.000000pt"><svg version="1.0" xmlns="http://www.w3.org/2000/svg" width="333.000000pt" height="332.000000pt" viewBox="0 0 333.000000 332.000000" preserveAspectRatio="xMidYMid meet">
<metadata>
Created by potrace 1.16, written by Peter Selinger 2001-2019
</metadata>
<g transform="translate(0.000000,332.000000) scale(0.100000,-0.100000)" fill="#000000" stroke="none">
<path d="M0 1660 l0 -1660 1665 0 1665 0 0 1660 0 1660 -1665 0 -1665 0 0
-1660z m1882 1483 c14 -12 18 -31 18 -78 l0 -63 -53 -44 c-32 -29 -56 -58 -62
-79 -8 -26 -18 -37 -45 -46 l-35 -12 48 0 c26 -1 61 -8 77 -16 29 -15 30 -18
30 -88 0 -76 -13 -121 -100 -355 -23 -63 -40 -116 -37 -118 2 -3 29 4 58 14
86 30 206 63 414 114 199 48 369 62 399 32 18 -18 22 -114 6 -144 -5 -10 -31
-30 -57 -44 -41 -23 -57 -26 -132 -25 -47 1 -99 -2 -116 -6 -111 -28 -392
-111 -505 -150 -74 -26 -150 -52 -168 -58 -27 -9 -39 -23 -67 -79 -31 -61 -55
-107 -116 -215 -45 -79 -129 -208 -198 -303 -169 -229 -333 -387 -496 -476
-63 -35 -77 -39 -163 -42 -138 -6 -192 19 -244 114 -18 33 -22 60 -26 179 -3
131 -2 145 22 214 14 41 33 82 41 91 8 9 15 22 15 29 0 6 48 60 108 119 145
145 304 251 562 374 149 71 186 88 197 88 4 1 26 9 48 20 l40 19 -57 1 c-51 0
-61 3 -87 31 -50 52 -55 202 -10 291 77 152 309 349 439 375 l35 7 -44 8 c-64
11 -71 21 -71 97 0 74 10 94 85 165 67 64 93 76 164 76 46 0 70 -5 83 -17z
m385 -1167 c28 -24 28 -25 28 -149 l0 -124 35 8 c55 13 137 10 175 -5 43 -18
65 -61 65 -126 0 -27 2 -50 5 -50 2 0 25 15 51 33 44 31 50 32 140 32 92 0 94
0 126 -33 l33 -32 -1 -153 c-1 -141 -3 -159 -31 -247 -43 -131 -124 -328 -213
-515 -52 -110 -85 -207 -81 -242 1 -14 91 20 175 66 48 26 68 31 125 31 39 0
72 -5 79 -12 7 -7 12 -40 12 -79 0 -66 0 -67 -38 -91 -49 -33 -164 -83 -224
-98 -28 -7 -89 -11 -148 -8 -115 4 -146 20 -168 84 -20 57 -10 221 18 304 25
72 80 208 114 285 86 190 186 468 173 481 -13 13 -153 -187 -233 -334 -20 -37
-58 -105 -84 -152 -26 -47 -72 -139 -103 -205 -31 -66 -65 -136 -74 -155 l-18
-35 -85 0 -85 0 0 90 c0 87 1 93 49 190 26 55 66 141 88 190 23 50 44 95 48
100 5 6 28 62 53 125 63 158 117 350 99 350 -27 -1 -214 -220 -304 -355 -14
-22 -63 -110 -108 -195 -136 -256 -253 -445 -296 -479 -33 -26 -128 -29 -162
-5 -19 13 -22 24 -22 78 0 57 4 70 38 122 21 33 65 106 98 164 69 124 64 115
134 229 30 50 65 110 78 133 l22 43 -97 6 c-111 6 -146 20 -192 76 -30 37 -31
40 -31 141 0 89 3 109 24 150 43 84 188 215 346 312 80 49 181 79 267 80 62 0
76 -3 100 -24z"></path>
<path d="M1516 2461 c-38 -37 -80 -88 -95 -112 -26 -41 -27 -50 -23 -132 3
-74 6 -86 18 -76 8 6 14 15 14 20 0 5 15 40 34 77 18 38 38 82 44 98 6 16 26
66 45 112 20 45 34 82 33 82 -2 0 -33 -31 -70 -69z"></path>
<path d="M1149 1772 c-291 -152 -480 -299 -574 -447 -36 -57 -65 -130 -65
-163 0 -25 27 -83 43 -93 29 -19 156 71 279 197 105 108 264 317 372 492 15
24 26 46 23 48 -2 2 -37 -13 -78 -34z"></path>
<path d="M1983 1701 c-101 -68 -199 -151 -234 -199 l-30 -41 23 -12 c13 -7 50
-20 83 -29 59 -15 60 -16 66 -55 5 -39 6 -39 16 -15 6 14 31 70 56 125 52 117
110 275 99 275 -4 0 -39 -22 -79 -49z"></path>
</g>
</svg></svg></g></svg>