<?xml version="1.0" standalone="no"?>
<!DOCTYPE svg PUBLIC "-//W3C//DTD SVG 20010904//EN"
 "http://www.w3.org/TR/2001/REC-SVG-20010904/DTD/svg10.dtd">
<svg version="1.0" xmlns="http://www.w3.org/2000/svg"
 width="1207.000000pt" height="1207.000000pt" viewBox="0 0 1207.000000 1207.000000"
 preserveAspectRatio="xMidYMid meet">
<metadata>
Created by potrace 1.14, written by Peter Selinger 2001-2017
</metadata>
<g transform="translate(0.000000,1207.000000) scale(0.100000,-0.100000)"
fill="#000000" stroke="none">
<path d="M5748 12065 c-1 -1 -50 -5 -108 -9 -145 -8 -199 -14 -400 -42 -168
-23 -205 -28 -260 -39 -14 -3 -36 -7 -50 -10 -343 -63 -852 -219 -1140 -348
-25 -11 -47 -21 -50 -22 -25 -8 -210 -92 -230 -104 -8 -5 -53 -28 -100 -52
-47 -23 -114 -59 -150 -79 -36 -21 -69 -39 -75 -41 -13 -4 -230 -138 -335
-208 -80 -52 -389 -277 -400 -290 -3 -3 -27 -24 -55 -46 -27 -22 -61 -50 -75
-62 -14 -12 -36 -31 -50 -43 -146 -126 -369 -343 -500 -489 -128 -142 -121
-134 -195 -226 -21 -28 -42 -52 -45 -55 -3 -3 -51 -66 -107 -140 -136 -183
-279 -398 -365 -550 -14 -25 -44 -77 -67 -117 -53 -94 -261 -522 -261 -539 0
-3 -9 -24 -19 -47 -49 -109 -155 -412 -210 -602 -22 -75 -97 -380 -105 -430
-3 -16 -8 -41 -11 -55 -13 -63 -35 -189 -40 -230 -3 -25 -8 -56 -10 -70 -3
-14 -7 -50 -10 -80 -3 -30 -7 -73 -10 -95 -3 -22 -7 -56 -10 -75 -28 -231 -27
-822 1 -1100 7 -70 42 -346 49 -382 3 -16 7 -40 10 -55 3 -16 8 -44 11 -63 7
-46 52 -252 72 -335 223 -907 686 -1775 1316 -2470 146 -161 411 -419 536
-521 19 -16 37 -31 40 -34 14 -16 167 -136 260 -204 58 -43 112 -83 121 -90 9
-7 69 -48 135 -91 555 -365 1161 -631 1799 -788 181 -45 324 -74 505 -102 86
-13 109 -16 145 -20 22 -2 58 -6 80 -9 225 -30 751 -42 1034 -24 102 7 348 33
411 43 24 4 40 6 135 20 59 8 424 83 465 95 19 6 76 22 126 35 49 13 112 31
140 40 143 45 211 68 229 75 11 4 49 18 85 31 298 104 706 300 1010 487 188
116 484 322 601 420 12 9 29 24 39 32 9 8 39 33 66 55 196 161 526 488 670
665 16 19 31 37 34 40 44 38 268 337 381 507 179 270 255 403 394 688 209 429
362 878 454 1330 31 153 35 173 48 254 4 25 8 48 8 51 1 3 5 37 10 75 5 39 9
72 10 75 1 3 5 41 9 85 4 44 9 91 12 105 26 165 25 864 -1 1065 -2 17 -7 57
-10 90 -6 63 -14 134 -21 174 -2 13 -6 45 -10 70 -13 97 -54 319 -74 401 -6
25 -16 65 -22 90 -134 573 -395 1187 -726 1710 -47 74 -88 137 -92 140 -3 3
-18 25 -34 50 -30 46 -224 311 -235 320 -3 3 -32 37 -63 75 -31 39 -65 79 -75
90 -10 12 -52 59 -93 105 -41 47 -150 160 -242 251 -93 91 -168 170 -168 175
0 13 -76 92 -125 130 -22 17 -67 46 -100 65 -33 18 -105 67 -160 110 -297 227
-593 409 -940 579 -226 110 -224 109 -395 178 -321 129 -775 262 -1049 307
-19 3 -37 7 -40 9 -3 2 -28 7 -56 10 -27 4 -57 9 -65 11 -8 3 -31 6 -50 9 -19
2 -89 11 -155 20 -66 8 -156 18 -200 22 -44 4 -93 8 -110 11 -36 4 -692 13
-697 8z"/>
</g>
</svg>
